<svg height="512pt" viewBox="-26 0 512 512.001" width="512pt" xmlns="http://www.w3.org/2000/svg"><path d="m121.945312 383.230469c-2.628906 0-5.210937 1.058593-7.070312 2.921875-1.859375 1.859375-2.929688 4.4375-2.929688 7.078125 0 2.628906 1.070313 5.199219 2.929688 7.070312 1.871094 1.859375 4.441406 2.917969 7.070312 2.917969 2.628907 0 5.210938-1.058594 7.078126-2.917969 1.863281-1.871093 2.921874-4.441406 2.921874-7.070312 0-2.640625-1.058593-5.210938-2.921874-7.078125-1.867188-1.863282-4.4375-2.921875-7.078126-2.921875zm0 0"/><path d="m204.105469 398.109375c0-2.628906-1.070313-5.207031-2.929688-7.070313-1.859375-1.859374-4.441406-2.929687-7.070312-2.929687-2.640625 0-5.210938 1.070313-7.070313 2.929687-1.871094 1.863282-2.929687 4.441407-2.929687 7.070313 0 2.632813 1.058593 5.210937 2.929687 7.070313 1.859375 1.859374 4.429688 2.929687 7.070313 2.929687 2.628906 0 5.210937-1.070313 7.070312-2.929687 1.859375-1.859376 2.929688-4.4375 2.929688-7.070313zm0 0"/><path d="m210.753906 441.550781c-2.640625 0-5.210937 1.070313-7.070312 2.929688-1.867188 1.859375-2.929688 4.441406-2.929688 7.070312 0 2.640625 1.0625 5.210938 2.929688 7.070313 1.859375 1.859375 4.429687 2.929687 7.070312 2.929687 2.628906 0 5.210938-1.070312 7.070313-2.929687s2.929687-4.429688 2.929687-7.070313c0-2.628906-1.070312-5.210937-2.929687-7.070312s-4.441407-2.929688-7.070313-2.929688zm0 0"/><path d="m152.816406 343.992188c-2.640625 0-5.210937 1.070312-7.070312 2.929687-1.871094 1.859375-2.929688 4.4375-2.929688 7.070313 0 2.628906 1.058594 5.207031 2.929688 7.070312 1.859375 1.859375 4.4375 2.929688 7.070312 2.929688 2.628906 0 5.207032-1.070313 7.070313-2.929688 1.859375-1.863281 2.929687-4.441406 2.929687-7.070312 0-2.632813-1.070312-5.210938-2.929687-7.070313-1.863281-1.859375-4.441407-2.929687-7.070313-2.929687zm0 0"/><path d="m194.363281 325.101562c1.863281-1.871093 2.929688-4.441406 2.929688-7.070312 0-2.640625-1.066407-5.210938-2.929688-7.070312-1.859375-1.871094-4.4375-2.929688-7.070312-2.929688-2.628907 0-5.207031 1.058594-7.066407 2.929688-1.863281 1.859374-2.929687 4.429687-2.929687 7.070312 0 2.628906 1.066406 5.210938 2.929687 7.070312 1.859376 1.859376 4.4375 2.929688 7.066407 2.929688 2.632812 0 5.210937-1.070312 7.070312-2.929688zm0 0"/><path d="m150.824219 282.511719c0-2.628907-1.070313-5.210938-2.929688-7.070313s-4.4375-2.929687-7.070312-2.929687c-2.628907 0-5.210938 1.070312-7.070313 2.929687s-2.929687 4.441406-2.929687 7.070313c0 2.640625 1.070312 5.210937 2.929687 7.070312 1.859375 1.871094 4.441406 2.929688 7.070313 2.929688 2.632812 0 5.210937-1.058594 7.070312-2.929688 1.859375-1.859375 2.929688-4.429687 2.929688-7.070312zm0 0"/><path d="m117.523438 323.351562c0-2.628906-1.066407-5.199218-2.929688-7.070312-1.859375-1.859375-4.429688-2.929688-7.070312-2.929688-2.628907 0-5.207032 1.070313-7.066407 2.929688-1.863281 1.871094-2.929687 4.441406-2.929687 7.070312 0 2.640626 1.066406 5.210938 2.929687 7.070313 1.859375 1.871094 4.4375 2.929687 7.066407 2.929687 2.640624 0 5.210937-1.058593 7.070312-2.929687 1.863281-1.859375 2.929688-4.429687 2.929688-7.070313zm0 0"/><path d="m429.414062 110.242188c-25.296874-46.816407-67.933593-80.726563-123.292968-98.066407-40.492188-12.6875-73.617188-12.2265622-76.515625-12.1562498-54.195313.0351563-101.472657 22.7773438-123.402344 59.3671878-2.894531 4.828125-5.304687 9.832031-7.238281 14.980469-10.332032 9.839843-56.933594 58.007812-56.933594 126.300781 0 45.488281-21.878906 69.234375-34.917969 79.339843-4.878906 3.78125-7.515625 9.714844-7.0624998 15.875.4570308 6.164063 3.9414068 11.648438 9.3203128 14.675782 4.914062 2.761718 10.441406 5.414062 15.785156 7.976562 4.726562 2.265625 11.4375 5.484375 14.710938 7.582032v17.789062c0 2.433594-.464844 4.808594-1.378907 7.0625l-2.480469 6.097656c-3.390624 8.351563-2.144531 17.914063 3.242188 25.105469v2.191406c0 6.484375 2.855469 12.484375 7.605469 16.554688v11.726562c0 25.140625 20.457031 45.597657 45.597656 45.597657h29.496094c19.449219 0 37.707031 9.519531 48.839843 25.464843l16.773438 24.019531c1.871094 2.679688 4.929688 4.273438 8.199219 4.273438h168.828125c3.210937 0 6.226562-1.539062 8.105468-4.144531 1.878907-2.601563 2.394532-5.949219 1.386719-8.996094l-28.621093-86.527344c18.570312-3.683593 36-12.542969 50.113281-25.976562 36.65625-34.886719 58.554687-81.300781 63.332031-134.222657 4.351562-48.25-6.121094-98.644531-29.492188-141.890624zm-228.4375 381.757812-13.789062-19.746094c-14.875-21.296875-39.261719-34.015625-65.238281-34.015625h-29.496094c-14.113281 0-25.597656-11.480469-25.597656-25.59375v-17.238281c0-4.003906-2.390625-7.621094-6.074219-9.195312l-.433594-.1875c-.667968-.28125-1.097656-.9375-1.097656-1.660157v-5.640625c0-2.242187-.753906-4.421875-2.140625-6.183594l-1.765625-2.238281c-1.269531-1.617187-1.578125-3.800781-.804688-5.707031l2.476563-6.097656c1.894531-4.65625 2.851563-9.566406 2.851563-14.589844v-21.269531c0-9.628907-9.808594-14.335938-26.054688-22.132813-4.261719-2.042968-8.644531-4.144531-12.523438-6.21875 16.070313-13.121094 40.742188-41.726562 40.742188-93.617187 0-37.535157 16.703125-68.820313 31.199219-88.902344.796875 17.398437 6.0625 35.59375 15.800781 53.808594 25.640625 47.957031 70.289062 68.054687 106.167969 84.207031 34.128906 15.363281 53.445312 25.03125 53.597656 45.132812.113281 14.761719-3.28125 25.621094-10.085937 32.277344-7.859376 7.6875-18.285157 7.488282-18.355469 7.488282-3.355469-.234376-6.5 1.230468-8.546875 3.898437-2.042969 2.667969-2.507813 6.195313-1.40625 9.371094.042968.125.441406 1.257812 1.207031 3.144531 12.632813 31.0625 39.792969 53.832031 72.65625 60.902344 6.902344 1.488281 13.859375 2.230468 20.773437 2.277344l25.710938 77.726562zm180.808594-120.132812c-13.835937 13.171874-31.0625 20.792968-49.324218 22.222656-.621094-.015625-1.25.023437-1.875.128906-7.269532.398438-14.691407-.175781-22.117188-1.773438-23.550781-5.070312-42.832031-19.457031-54.136719-40.058593 5.671875-1.792969 12.171875-4.964844 18.023438-10.570313 11.066406-10.601562 16.597656-26.433594 16.441406-47.058594-.261719-33.898437-31.894531-48.140624-65.390625-63.21875-34.832031-15.679687-74.3125-33.449218-96.738281-75.394531-13.929688-26.054687-17.207031-50.824219-9.789063-72.546875.035156-.085937.0625-.171875.09375-.257812 1.628906-4.707032 3.75-9.273438 6.386719-13.675782 18.351563-30.621093 59.113281-49.644531 106.371094-49.644531.097656 0 .191406-.003906.289062-.003906.308594-.015625 31.792969-.765625 70.125 11.242187 51.007813 15.980469 88.582031 45.75 111.675781 88.488282 38.417969 71.097656 45.40625 180.320312-30.035156 252.121094zm0 0"/><path d="m231.140625 47.949219c-.367187 0-.769531.019531-1.136719.0625-5.488281.609375-9.441406 5.554687-8.832031 11.042969.566406 5.113281 4.898437 8.894531 9.925781 8.894531.105469 0 .210938 0 .316406-.003907 5.398438-.144531 9.730469-4.566406 9.730469-9.996093-.003906-5.523438-4.480469-10-10.003906-10zm0 0"/><path d="m291.789062 57.929688c-6.070312-1.898438-12.378906-3.570313-18.761718-4.960938-5.394532-1.175781-10.722656 2.238281-11.902344 7.636719-1.175781 5.394531 2.242188 10.722656 7.636719 11.902343 5.808593 1.265626 11.542969 2.785157 17.046875 4.507813 38.671875 12.113281 66.875 34.160156 83.824218 65.527344 1.808594 3.347656 5.25 5.25 8.808594 5.25 1.601563 0 3.230469-.390625 4.746094-1.207031 4.855469-2.625 6.667969-8.691407 4.042969-13.550782-19.515625-36.109375-51.625-61.378906-95.441407-75.105468zm0 0"/></svg>