<svg id="Layer_1" data-name="Layer 1" xmlns="http://www.w3.org/2000/svg" viewBox="0 0 2000 2000"><defs><style>.cls-1{fill:#01185e;}.cls-2{fill:none;stroke:#000;stroke-miterlimit:10;}.cls-3{fill:#4dcfe0;}.cls-4{font-size:184.07px;font-family:Poppins-Regular, Poppins;}</style></defs><title>LOGO</title><path class="cls-1" d="M213.25,618.9v39.72h47.67a38.13,38.13,0,0,1,38.13,38.13V922.36H448.39V696.75a38.14,38.14,0,0,1,38.14-38.13h50.84V618.9Z"/><line class="cls-2" x1="1174.54" y1="922.36" x2="1172.19" y2="922.36"/><path class="cls-1" d="M639.05,618.9v39.72h54a38.13,38.13,0,0,1,38.13,38.13V922.36H880.55V696.75a38.13,38.13,0,0,1,38.13-38.13h47.66V618.9Z"/><path class="cls-3" d="M639.05,1297.32V1337H966.34v-39.72H918.68a38.13,38.13,0,0,1-38.13-38.13V995.45H731.2v263.74a38.13,38.13,0,0,1-38.13,38.13Z"/><path class="cls-3" d="M213.25,1297.32V1337H537.37v-39.72H486.53a38.14,38.14,0,0,1-38.14-38.13V995.45H299.05v263.74a38.13,38.13,0,0,1-38.13,38.13Z"/><path class="cls-1" d="M213.25,928.18v20.14a5.83,5.83,0,0,0,5.82,5.82H942.48a5.69,5.69,0,0,0,3.91-1.53l20-18.11.57-.54a5.83,5.83,0,0,1,9.16,1.78l8.83,18.4,18.24,38a5.81,5.81,0,0,0,11-1.43l6.8-36.57,5.94-31.78L1048.2,808c1.21-6.55,10.71-6.2,11.47.41l12.84,113.92,3.59,31.78,4.64,41.31,21.51,190.91c.73,6.51,10,7,11.44.6L1156,995.45l9.16-41.31,7-31.78.7-3.18,1.65,3.18,16.65,31.78,11.38,21.73a5.82,5.82,0,0,0,10.35-.09l18.72-37.5a5.84,5.84,0,0,1,5.21-3.21h50.88a50.85,50.85,0,1,0,.06-28.79l-85.48-2.86a5.79,5.79,0,0,1-5.31-3.91l-23.61-68.41a5.79,5.79,0,0,0-11.15.7l-18.87,90.56-6.64,31.78-8.58,41.31-2,9.66c-1.36,6.41-10.67,6-11.47-.51l-1.08-9.15-4.92-41.31-3.78-31.78L1069.36,623.6c-.76-6.61-10.26-6.89-11.47-.35L1007.11,898.5a5.8,5.8,0,0,1-10.58,2.09l-28-43a5.8,5.8,0,0,0-10,.48l-32.26,61.2a5.75,5.75,0,0,1-5.11,3.11H219.07A5.83,5.83,0,0,0,213.25,928.18Z"/><text class="cls-4" transform="translate(993.29 1337.11)">ealOnline</text></svg>