<svg id="_x31__x2C_5" height="512" viewBox="0 0 24 24" width="512" xmlns="http://www.w3.org/2000/svg"><circle cx="19.5" cy="13.5" fill="#eceff1" r="1.75"/><path d="m7.5 13c-3.033 0-5.5-2.467-5.5-5.5v-4.75c0-.965.785-1.75 1.75-1.75h1.5c.414 0 .75.336.75.75s-.336.75-.75.75h-1.5c-.138 0-.25.112-.25.25v4.75c0 2.206 1.794 4 4 4s4-1.794 4-4v-4.75c0-.138-.112-.25-.25-.25h-1.5c-.414 0-.75-.336-.75-.75s.336-.75.75-.75h1.5c.965 0 1.75.785 1.75 1.75v4.75c0 3.033-2.467 5.5-5.5 5.5z"/><path d="m5.25 3.5c-.414 0-.75-.336-.75-.75v-2c0-.414.336-.75.75-.75s.75.336.75.75v2c0 .414-.336.75-.75.75z"/><path d="m9.75 3.5c-.414 0-.75-.336-.75-.75v-2c0-.414.336-.75.75-.75s.75.336.75.75v2c0 .414-.336.75-.75.75z"/><path d="m13.5 24c-3.722 0-6.75-3.028-6.75-6.75v-5c0-.414.336-.75.75-.75s.75.336.75.75v5c0 2.895 2.355 5.25 5.25 5.25s5.25-2.355 5.25-5.25v-1.75c0-.414.336-.75.75-.75s.75.336.75.75v1.75c0 3.722-3.028 6.75-6.75 6.75z"/><path d="m19.5 16c-1.378 0-2.5-1.122-2.5-2.5s1.122-2.5 2.5-2.5 2.5 1.122 2.5 2.5-1.122 2.5-2.5 2.5zm0-3.5c-.551 0-1 .449-1 1s.449 1 1 1 1-.449 1-1-.449-1-1-1z"/></svg>